<?xml version="1.0" encoding="UTF-8"?>
<!DOCTYPE svg PUBLIC "-//W3C//DTD SVG 1.1//EN" "http://www.w3.org/Graphics/SVG/1.1/DTD/svg11.dtd">
<!-- Creator: CorelDRAW X8 -->
<svg xmlns="http://www.w3.org/2000/svg" xml:space="preserve" width="75.9266mm" height="30mm" version="1.1" style="shape-rendering:geometricPrecision; text-rendering:geometricPrecision; image-rendering:optimizeQuality; fill-rule:evenodd; clip-rule:evenodd"
viewBox="0 0 6750392 2667205"
 xmlns:xlink="http://www.w3.org/1999/xlink">
 <defs>
  <style type="text/css">
   <![CDATA[
    .fil1 {fill:#FEFEFE}
    .fil0 {fill:#FEFEFE;fill-rule:nonzero}
   ]]>
  </style>
 </defs>
 <g id="Warstwa_x0020_1">
  <metadata id="CorelCorpID_0Corel-Layer"/>
  <g id="_2725145332784">
   <g>
    <polygon class="fil0" points="6272091,155960 5016861,155960 5016861,122763 6272091,122763 "/>
   </g>
   <g>
    <polygon class="fil0" points="6272091,218729 5016861,218729 5016861,185531 6272091,185531 "/>
   </g>
   <g>
    <polygon class="fil0" points="6140332,288103 4702442,288103 4702442,254905 6140332,254905 "/>
   </g>
   <g>
    <polygon class="fil0" points="6059204,357477 4511808,357477 4511808,324279 6059204,324279 "/>
   </g>
   <g>
    <polygon class="fil0" points="5978086,426851 4436770,426851 4436770,393653 5978086,393653 "/>
   </g>
   <g>
    <polygon class="fil0" points="5951725,496225 4329282,496225 4329282,463027 5951725,463027 "/>
   </g>
   <g>
    <polygon class="fil0" points="5943607,565607 4219766,565607 4219766,532410 5943607,532410 "/>
   </g>
   <g>
    <polygon class="fil0" points="5933463,634981 4104161,634981 4104161,601784 5933463,601784 "/>
   </g>
   <g>
    <polygon class="fil0" points="5951725,704355 4039268,704355 4039268,671158 5951725,671158 "/>
   </g>
   <g>
    <polygon class="fil0" points="5982140,773729 3960176,773729 3960176,740532 5982140,740532 "/>
   </g>
   <g>
    <polygon class="fil0" points="6020672,843103 3765479,843103 3765479,809906 6020672,809906 "/>
   </g>
   <g>
    <polygon class="fil0" points="6087601,912477 3765479,912477 3765479,879280 6087601,879280 "/>
   </g>
   <g>
    <polygon class="fil0" points="6217396,981860 3765479,981860 3765479,948662 6217396,948662 "/>
   </g>
  </g>
  <path class="fil1" d="M6750392 364865c-1148578,-470673 -2113884,-232714 -2919335,623316l-285933 0c430629,-441128 934081,-800863 1624078,-952138 662232,-107471 1170583,32166 1581190,328822z"/>
  <g>
   <g>
    <polygon class="fil0" points="478301,2511947 1733532,2511947 1733532,2545144 478301,2545144 "/>
   </g>
   <g>
    <polygon class="fil0" points="478301,2448467 1733532,2448467 1733532,2481665 478301,2481665 "/>
   </g>
   <g>
    <polygon class="fil0" points="610061,2379093 2047951,2379093 2047951,2412291 610061,2412291 "/>
   </g>
   <g>
    <polygon class="fil0" points="691188,2309719 2238585,2309719 2238585,2342917 691188,2342917 "/>
   </g>
   <g>
    <polygon class="fil0" points="772307,2240345 2313622,2240345 2313622,2273543 772307,2273543 "/>
   </g>
   <g>
    <polygon class="fil0" points="798668,2170971 2421110,2170971 2421110,2204169 798668,2204169 "/>
   </g>
   <g>
    <polygon class="fil0" points="806785,2101597 2530626,2101597 2530626,2134795 806785,2134795 "/>
   </g>
   <g>
    <polygon class="fil0" points="816929,2032214 2646231,2032214 2646231,2065412 816929,2065412 "/>
   </g>
   <g>
    <polygon class="fil0" points="798668,1962840 2711124,1962840 2711124,1996038 798668,1996038 "/>
   </g>
   <g>
    <polygon class="fil0" points="768253,1893466 2790216,1893466 2790216,1926664 768253,1926664 "/>
   </g>
   <g>
    <polygon class="fil0" points="729720,1824092 2984913,1824092 2984913,1857290 729720,1857290 "/>
   </g>
   <g>
    <polygon class="fil0" points="662791,1754718 2984913,1754718 2984913,1787916 662791,1787916 "/>
   </g>
   <g>
    <polygon class="fil0" points="532996,1685344 2984913,1685344 2984913,1718542 532996,1718542 "/>
   </g>
  </g>
  <path class="fil1" d="M0 2302331c1148578,470673 2113884,232714 2919335,-623317l285934 0c-430629,441129 -934082,800864 -1624079,952139 -662231,107470 -1170583,-32167 -1581190,-328822z"/>
  <path class="fil0" d="M492126 1436201l119624 -9922c7219,33429 21640,57887 43564,73597 21907,15710 51469,23507 88649,23507 39315,0 69010,-6971 88943,-20911 19942,-13941 29979,-30237 29979,-48899 0,-12056 -4241,-22209 -12589,-30717 -8331,-8384 -23045,-15710 -43973,-21853 -14288,-4250 -46801,-11576 -97700,-22209 -65471,-13701 -111427,-30478 -137877,-50437 -37190,-27997 -55700,-62137 -55700,-102412 0,-25872 8757,-50206 26148,-72770 17532,-22556 42710,-39688 75659,-51495 32931,-11816 72539,-17719 119198,-17719 75935,0 133200,14056 171510,42284 38470,28237 58545,65800 60528,112929l-123021 3539c-5236,-26219 -16394,-45005 -33509,-56456 -17114,-11460 -42853,-17248 -77064,-17248 -35358,0 -63071,6144 -83004,18422 -12864,7921 -19372,18430 -19372,31659 0,12047 6081,22325 18243,30833 15408,10989 52882,22325 112405,34140 59541,11692 103514,23979 131929,36497 28566,12642 50908,29766 67027,51619 16128,21853 24182,48783 24182,80798 0,29064 -9610,56350 -28992,81741 -19373,25401 -46658,44303 -82008,56581 -35349,12402 -79473,18546 -132204,18546 -76789,0 -135752,-14759 -176907,-44409 -41137,-29535 -65613,-72646 -73668,-129235z"/>
  <polygon id="1" class="fil0" points="1036805,1600634 1036805,1508500 1356940,1178931 1073292,1178931 1073292,1093172 1517853,1093172 1517853,1172548 1185288,1514874 1530584,1514874 1530584,1600634 "/>
  <polygon id="2" class="fil0" points="1611881,1600634 1611881,1097421 1734901,1097421 1734901,1514874 2039487,1514874 2039487,1600634 "/>
  <path id="3" class="fil0" d="M2673953 1600634l-132498 0 -52455 -115526 -243632 0 -50490 115526 -130088 0 235861 -507462 129946 0 243356 507462zm-224837 -201285l-84417 -187816 -82008 187816 166425 0z"/>
  <polygon id="4" class="fil0" points="2741122,1600634 2741122,1093172 2864142,1093172 2864142,1317964 3112014,1093172 3276892,1093172 3047681,1290794 3288770,1600634 3130116,1600634 2962980,1362373 2864142,1447190 2864142,1600634 "/>
  <path id="5" class="fil0" d="M3587826 1093172l242929 0c48223,0 83990,1653 107613,4961 23747,3422 44826,10393 63488,20910 18670,10625 34220,24681 46658,42285 12447,17603 18671,37447 18671,59300 0,23623 -7637,45476 -22903,65205 -15274,19844 -36060,34611 -62217,44533 36897,9095 65187,24449 85120,46187 19790,21738 29694,47245 29694,76664 0,23152 -6365,45592 -19239,67445 -12865,21854 -30388,39341 -52739,52446 -22192,12999 -49628,21027 -82293,24103 -20359,1769 -69703,2952 -147905,3423l-206877 0 0 -507462zm123029 84337l0 116948 80310 0c47662,0 77348,-596 88942,-1770 20937,-2009 37474,-8037 49485,-18074 12030,-10047 17968,-23152 17968,-39457 0,-15710 -5236,-28353 -15558,-38150 -10322,-9807 -25739,-15710 -46098,-17719 -12163,-1183 -47077,-1778 -104635,-1778l-70414 0zm0 201285l0 136080 113685 0c44116,0 72255,-1058 84133,-3067 18243,-2836 33082,-9575 44542,-20324 11451,-10864 17248,-25161 17248,-43227 0,-15363 -4383,-28236 -13292,-38870 -8757,-10624 -21631,-18421 -38319,-23266 -16687,-4846 -53032,-7326 -108884,-7326l-99113 0z"/>
  <path id="6" class="fil0" d="M4200527 1600634l0 -507462 258345 0c64902,0 112130,4605 141540,13700 29553,9095 53033,25276 70699,48552 17675,23391 26583,49966 26583,79972 0,38150 -13292,69569 -40017,94374 -26725,24814 -66600,40400 -119757,46899 26432,12873 48205,27054 65319,42524 17257,15479 40444,42995 69570,82452l74095 98989 -146634 0 -87947 -110805c-31535,-39332 -53175,-64137 -64911,-74415 -11593,-10162 -23889,-17248 -36896,-21026 -13158,-3779 -33802,-5672 -62084,-5672l-24876 0 0 211918 -123029 0zm123029 -292717l90765 0c58821,0 95460,-2125 110156,-6259 14572,-4134 26156,-11336 34362,-21498 8349,-10153 12447,-22911 12447,-38150 0,-17132 -5521,-30832 -16403,-41466 -10891,-10508 -26299,-17123 -46098,-19844 -10047,-1182 -39875,-1769 -89512,-1769l-95717 0 0 128986z"/>
  <path id="7" class="fil0" d="M4813220 1093172l223698 0c50490,0 88942,3191 115392,9682 35492,8748 66031,24333 91343,46782 25454,22325 44676,49726 57967,82212 13158,32371 19800,72415 19800,119900 0,41813 -6215,77722 -18662,107960 -15132,36976 -36763,66858 -64911,89662 -21204,17364 -49912,30824 -85964,40515 -27010,7202 -63070,10749 -108315,10749l-230348 0 0 -507462zm123029 85759l0 335943 91200 0c34078,0 58679,-1653 73811,-4845 19942,-4134 36336,-11220 49352,-21142 13149,-9922 23756,-26219 31953,-48899 8340,-22680 12447,-53753 12447,-92970 0,-39216 -4107,-69223 -12447,-90249 -8197,-21018 -19799,-37323 -34647,-49139 -14847,-11691 -33651,-19719 -56554,-23854 -16972,-3191 -50490,-4845 -100251,-4845l-54864 0z"/>
  <polygon id="8" class="fil0" points="5585420,1600634 5585420,1387062 5362708,1093172 5506524,1093172 5650188,1294101 5790039,1093172 5931143,1093172 5708449,1387773 5708449,1600634 "/>
 </g>
</svg>
