<?xml version="1.0" encoding="UTF-8"?>
<!DOCTYPE svg  PUBLIC '-//W3C//DTD SVG 1.0//EN'  'http://www.w3.org/TR/2001/PR-SVG-20010719/DTD/svg10.dtd'>
<svg enable-background="new 0 0 50 50" overflow="visible" viewBox="0 0 50 50" xml:space="preserve" xmlns="http://www.w3.org/2000/svg">
	<metadata>
		<sfw>
			<slices/>
			<sliceSourceBounds x="0" y="0" width="50" height="50" bottomLeftOrigin="true"/>
		</sfw>
	</metadata>
	<switch>
		<g>
			<g clip-rule="evenodd" fill="#192B85" fill-rule="evenodd">
				<path d="m6.35 22.73c4.1-0.79 6.11-0.43 6.27 3.19 3.89-2.39 5.5 2.25 4.26 3.32-2.27-1.83-3.5-0.06-2.09 2.2 0.91 1.24 2.07 1.75 3.6 1.71 1.46-0.13 2.71-0.71 3.58-1.91 1.58-2.57-1.64-5.39-2.32-2.24-3.4-1.73-2.28-6.92 2.67-6.04-1.47-3.57-0.4-7.27 2.68-9.77 3.08 2.5 4.15 6.19 2.68 9.77 4.95-0.88 6.07 4.31 2.67 6.04-0.68-3.15-3.9-0.33-2.32 2.24 0.87 1.2 2.12 1.78 3.58 1.91 1.53 0.04 2.69-0.47 3.6-1.71 1.39-2.24 0.13-4.1-2.09-2.2-1.22-1.04 0.45-5.66 4.26-3.32 0.16-3.62 2.17-3.99 6.27-3.19-4.55 7.27-6.94 14.24-8.65 22.57l-10-16.76v0.4-0.4c-3.51 3.59-7.64 11.77-10.05 16.7-1.5-7.17-4.59-16.1-8.6-22.51z"/>
				<path d="m25 0c13.77 0 25 11.23 25 25s-11.23 25-25 25v-21.06c-3.5 3.3-7.28 11.09-8.43 17.75 1.93 1.57 4.01 2.71 6.16 3.21-12.71-1.16-22.73-11.89-22.73-24.9 0-10.78 6.88-20 16.47-23.5l4.32 1.53-2.05 1.41h6.25v-3.01h-8.32c2.6-0.92 5.41-1.43 8.33-1.43zm10 45.3c6.13-6.05 10.43-16.31 10.57-22.48h-1.7v-5.68h1.7l-5.82-7.2-5.82 7.2h1.7v5.68h-5.14v-8.33h2.28l-7.77-9.62-7.77 9.62h2.28v8.33h-5.14v-5.68h1.7l-5.82-7.2-5.82 7.2h1.7v5.68h-1.7c-0.03 6.17 4.33 16.38 10.52 22.42 1.84-6.6 6.13-13.74 10.05-16.7 4.7 3.38 8.5 11.39 10 16.76z"/>
			</g>
		</g>
	</switch>
</svg>
